<?xml version="1.0"?>
<svg version="1.1" xmlns="http://www.w3.org/2000/svg" width="400" height="50" style=""><path fill="#e94949" d="M35.02,36.55q-1.75,0-3.255-0.28q0.49,1.54,2.065,6.965q0.49,1.575,1.54,3.185q1.435,2.065,2.66,2.065q1.47,0,2.45-2.975q0.175-0.7,0.3675-0.7t0.28,0.4025t0.0875,0.5425q0,0.875-0.98,2.24q-1.295,1.925-2.835,1.925t-2.835-1.54t-2.5375-5.6175t-1.2425-5.1975q0-0.175,0.035-0.28q-4.2,5.565-6.02,7.35q-4.06,3.955-8.295,3.955q-2.975,0-2.975-2.24q0-1.12,0.7-2.4675t1.715-2.3625t1.785-1.015q0.14,0,0.14,0.07q0,0.175-0.875,0.875t-1.68,1.9775t-0.805,2.3275q0,1.855,2.485,1.855q4.655,0,12.81-10.92q0.455-0.595,0.77-0.84l-0.56-0.21q-0.455,0.175-0.735,0.175q-0.735,0-0.735-0.595q0-0.805,1.085-1.05q0.14-0.035,0.245-0.035q0.63,0,1.47,0.63q3.08-3.43,3.15-3.5q2.555-2.625,3.4475-2.625t0.8925,0.77q0,0.35-0.1575,0.665t-0.3675,0.315q-0.21,0.07-0.21-0.21q0-0.14,0.21-0.42q0.035-0.49-0.315-0.49q-1.12,0-5.425,5.95q1.05,0.07,1.75,0.07q8.12,0,10.15-4.2q0.42-0.91,0.42-1.68q0-1.54-1.4-2.66q-2.24-1.82-7.28-1.82t-10.29,2.555q-6.37,3.115-6.37,7.315q0,1.365,1.715,1.365t3.64-1.26t2.59-2.485q0.245-0.455,0.4725-0.455t0.1225,0.28q-0.665,1.96-2.9575,3.3425t-4.7775,1.3825t-2.485-1.575l0-0.245q0.525-4.585,5.6175-7.7875t12.2675-3.2025q6.685,0,9.485,2.31q1.68,1.4,1.68,3.29q0,0.805-0.385,1.75q-1.085,2.555-4.445,3.7975t-7.07,1.2425z M67.85595,32.14l-0.245-0.945q0-0.28,0.28-0.28q0.105,0,0.28,0.105q0.805,0.595,0.805,1.575t-1.26,1.9075t-3.185,0.9275q-0.595,0-1.19-0.105q-2.415,4.445-5.88,8.19q-4.62,4.9-8.4,4.9q-5.46,0-5.46-6.44q0-5.32,2.835-8.575q2.38-2.8,5.46-2.8q0.805,0,1.645,0.28q2.065,0.805,2.065,3.4125t-2.135,5.4425t-4.375,2.835q-2.52,0-2.52-2.73q0-0.77,0.3325-1.61t0.7525-0.84q0.315,0,0.315,0.315q0,0.175-0.315,0.875t-0.315,1.2425t0.5775,1.015t1.2075,0.4725q2.065,0,3.8325-2.5375t1.7675-4.9525q0-1.855-1.33-2.45q-0.455-0.175-0.945-0.175q-2.485,0-4.97,3.43q-2.415,3.465-2.415,7.595q0,2.275,0.98,3.71q1.015,1.47,2.8,1.47q4.62,0,12.04-12.565q-3.85-1.155-3.85-4.55q0-4.515,4.585-7.21q2.905-1.68,5.635-1.68q2.135,0,3.85,0.7q2.415,0.945,2.415,2.87q0,0.42-0.1925,0.805t-0.4025,0.385q-0.455-0.455-1.085-0.455q-2.975,0-8.155,8.855q0.28,0.035,0.595,0.035q1.19,0,2.38-0.7t1.19-1.75z M63.98845,23.4075q-2.3275,1.0325-3.71,3.0275t-1.3825,4.515t2.59,3.01q1.925-3.15,4.97-6.2825t5.075-3.1325q0.525,0,0.91,0.245q-0.035-0.98-1.365-1.715q-1.19-0.7-2.975-0.7t-4.1125,1.0325z M88.5119,29.305q0,0.28-0.7175,0.28t-1.435-0.7175t-0.7175-1.75t0.63-1.8725q1.33-1.82,4.445-2.59q2.24-0.56,4.48-0.56l0.28,0q0.315,0,1.715,0.105q-0.07-0.455,0.3675-0.8575t0.9975-0.4025q1.05,0,1.015,1.505q3.78,0.665,3.99,2.03q0.035,0.315,0.035,0.525q0,0.7-0.4025,0.7t-0.2625-0.84q-0.875-1.295-3.465-1.82q-0.63,2.835-6.58,12.32q-3.955,6.23-9.205,10.43q-6.02,4.76-11.34,4.76q-3.255,0-4.83-1.645t-1.575-3.6575t0.77-3.4475q1.855-3.57,5.355-5.565q2.59-1.505,4.795-1.505q2.38,0,3.7275,1.155t1.3475,2.905q0,1.89-1.4,3.43q-0.875,0.98-1.4,0.98q-0.14,0-0.14-0.1225t0.105-0.3325q1.26-1.855,1.26-3.4475t-0.875-2.6075q-1.015-1.085-2.7475-1.085t-3.8675,1.4q-2.625,1.715-4.305,5.145q-0.875,1.715-0.875,3.5525t1.365,2.975t3.675,1.1375q8.89,0,18.585-15.61q5.81-9.31,5.95-11.41q-2.1-0.105-2.205-0.105q-1.645,0-4.2175,0.91t-3.3425,2.24q-0.315,0.525-0.315,1.155t0.665,1.4t0.665,0.91z M104.79285,47.61q0-0.98,4.025-7.595q-2.87,0-3.815,0.245q-1.575,0.385-2.345,1.575q-0.28,0.385-0.4725,0.42t-0.1925-0.1575t0.14-0.3325q1.33-1.785,2.625-2.45t4.095-0.665l0.84,0q2.135-3.255,5.985-9.66q1.435-2.695,1.435-4.375q0-2.695-3.29-2.73l-0.385,0q-4.48,0-8.155,2.24t-5.81,5.565t-2.135,5.985q0,3.255,3.045,3.255q2.415,0,4.13-2.135t1.715-4.06q0-1.085-0.56-1.785q-0.07-0.07-0.07-0.175q0-0.245,0.28-0.245q0.14,0,0.21,0.105q0.7,0.91,0.7,2.17q0,2.135-1.75,4.3575t-3.675,2.4675q-0.595,0.105-1.155,0.105q-2.24,0-3.465-1.435q-1.19-1.295-1.19-3.5q0-0.91,0.21-1.855q1.05-4.725,6.0725-8.26t11.2875-3.535q2.415,0,4.1475,1.0325t1.7325,2.8875t-1.295,3.92l-6.335,9.73q1.12,0.035,4.0075,0.3325t4.34,0.2975t1.9425-0.035l1.33-2.205q3.395-5.705,7.8575-10.6575t7.7875-6.1425q0.105-0.035,0.21-0.035q0.245,0,0.245,0.28q0,0.105-0.105,0.175q-2.24,1.26-6.4225,6.1075t-7.2275,9.9575l-1.365,2.31q1.61-0.21,2.31-0.805q0.14-0.105,0.245,0.1225t-0.035,0.3325q-1.05,0.805-2.975,1.155q-2.45,4.55-2.45,6.405q0,1.19,1.015,1.19q0.7,0,1.6275-0.4725t1.2425-0.805t0.385-0.3325t0.035,0.2275t-0.14,0.3675q-0.595,0.56-1.785,1.19t-1.925,0.63t-1.085-0.245q-1.12-0.735-1.12-2.555t1.855-5.32q-1.295,0.105-2.415,0.105q-0.385,0-8.225-0.245q-2.485,3.92-3.99,7.14q-0.455,0.945-1.1025,0.945t-0.6475-0.525z M141.7938,46.665q-1.505,0-1.505-1.05q0-1.82,4.6375-8.3475t5.6175-8.0325q2.135-3.29,2.135-4.48q0-0.595-0.455-0.735q-0.84-0.35-1.96-0.35q-3.85,0-9.835,4.095q-3.92,2.73-6.4925,6.3875t-2.5725,6.0375q0,1.715,1.4,1.96q0.56,0.105,1.12,0.105q1.785,0,3.675-1.155q0.945-0.56,2.38-1.855l0.63-0.21q-0.665,1.26-2.7825,2.555t-4.3575,1.295q-0.525,0-1.225-0.14t-1.3475-0.9975t-0.6475-2.2575q0-5.495,10.36-12.915q2.1-1.505,4.97-2.6075t5.215-1.1025q1.19,0,2.2925,0.455t1.1025,1.5225t-1.2425,3.045t-3.885,5.565t-4.48,6.7025t-1.8375,4.34q0,0.595,0.49,0.595q0.945,0,3.535-1.96q6.16-4.69,14.49-15.225q1.33-1.68,2.135-1.68q0.315,0,0.315,0.315q0,0.14-0.105,0.35q0.035,0.105,0.035,0.21q0,0.735-0.84,1.995l-4.13,5.845q-2.52,3.64-4.445,6.895t-1.785,3.815l0.63-0.21q1.75-0.98,3.045-2.275q0.455-0.35,0.56-0.35l0.07,0.07q0,0.315-0.945,1.33q-2.45,2.135-3.5,2.135t-1.05-0.665t1.8725-4.13t6.0025-9.555q-0.7,0.84-2.205,2.485q-8.61,8.82-10.325,10.185q-2.555,1.995-4.76,1.995z M196.8957,21.605q0.735,0,0.735,0.525q0,2.135-5.88,12.215q0.245,0.945,0.77,2.205l10.43-7.945q5.985-4.55,8.085-5.845q4.69-2.8,9.205-2.8q1.295,0,2.38,0.42q0.665,0.245,0.665,0.91t-0.35,0.665q-0.21,0-0.4375-0.28t-1.33-0.28t-3.5875,0.56q-3.92,0.875-8.89,3.92q-3.115,1.925-8.33,5.915t-7.525,5.495q1.785,3.745,4.585,6.965q4.305,5.005,7.735,5.005q1.68,0,1.68-1.295q0-0.245-0.0525-0.49t0.1225-0.595t0.42-0.35q0.455,0,0.595,1.085q0.035,0.175,0.035,0.35q0,1.12-1.1375,1.8375t-2.695,0.7175t-2.6075-0.49q-2.765-1.365-5.5825-4.795t-4.3225-7.21q-1.925,1.12-3.185,1.225q-2.345,3.045-5.775,5.915q-1.855,1.575-4.025,2.5375t-4.165,0.9625q-2.835,0-4.375-1.4175t-1.54-4.3225q0-1.435,0.56-2.66q1.785-3.955,5.39-5.46q1.995-0.875,3.9725-0.875t2.6425,1.295q0.245,0.455,0.245,0.9625t-0.14,0.6475t-0.385-0.245q-0.84-1.54-1.785-1.715q-0.63-0.07-0.91-0.07q-2.73,0-5.11,2.275q-3.08,2.975-3.08,6.44q0,3.78,4.27,4.27l0.28,0q1.54,0,3.955-1.365q3.92-2.24,8.365-7.7q-0.805-0.735-0.805-2.17t1.0675-2.7125t2.9225-1.2775q0.525,0,0.98,0.105q1.75-2.94,3.395-6.3525t1.645-3.9375q0-0.07-0.21-0.07t-2.4325,1.1025t-3.1675,1.7325t-2.31,1.9775t-1.365,2.1875q0,0.385,0.5425,0.77t1.9775,0.385q0.175,0.07,0.175,0.1925t-0.9625,0.28t-1.5225,0.1575q-1.26,0-1.26-1.05q0-1.225,1.505-2.94t3.29-2.695q5.215-2.8,6.615-2.8z M191.3307,37.285q-0.28-0.7-0.455-1.4q-0.7,1.015-1.4,1.995q0.35,0,0.63-0.0525t1.225-0.5425z M190.0007,34.275q-0.42-0.175-0.9275-0.175t-1.015,0.63t-0.5075,1.3475t0.385,1.2075q1.715-2.45,2.065-3.01z M214.15665,46.665q-1.505,0-1.505-1.05q0-1.82,4.6375-8.3475t5.6175-8.0325q2.135-3.29,2.135-4.48q0-0.595-0.455-0.735q-0.84-0.35-1.96-0.35q-3.85,0-9.835,4.095q-3.92,2.73-6.4925,6.3875t-2.5725,6.0375q0,1.715,1.4,1.96q0.56,0.105,1.12,0.105q1.785,0,3.675-1.155q0.945-0.56,2.38-1.855l0.63-0.21q-0.665,1.26-2.7825,2.555t-4.3575,1.295q-0.525,0-1.225-0.14t-1.3475-0.9975t-0.6475-2.2575q0-5.495,10.36-12.915q2.1-1.505,4.97-2.6075t5.215-1.1025q1.19,0,2.2925,0.455t1.1025,1.5225t-1.2425,3.045t-3.885,5.565t-4.48,6.7025t-1.8375,4.34q0,0.595,0.49,0.595q0.945,0,3.535-1.96q6.16-4.69,14.49-15.225q1.33-1.68,2.135-1.68q0.315,0,0.315,0.315q0,0.14-0.105,0.35q0.035,0.105,0.035,0.21q0,0.735-0.84,1.995l-4.13,5.845q-2.52,3.64-4.445,6.895t-1.785,3.815l0.63-0.21q1.75-0.98,3.045-2.275q0.455-0.35,0.56-0.35l0.07,0.07q0,0.315-0.945,1.33q-2.45,2.135-3.5,2.135t-1.05-0.665t1.8725-4.13t6.0025-9.555q-0.7,0.84-2.205,2.485q-8.61,8.82-10.325,10.185q-2.555,1.995-4.76,1.995z M246.4676,44.565q-0.84,1.295-0.84,1.68t0.315,0.56q0,0.035-0.63,0.525q-0.56,0.28-1.26,0.28t-1.015-0.1575t-0.21-0.5075q0.49-1.575,3.675-6.3175t4.27-6.7025q2.345-4.235,2.345-6.755q0-1.05-0.35-1.785q-0.7-1.435-3.325-1.435q-4.095,0-8.47,3.535q-3.5,2.835-5.355,6.0025t-1.855,5.6525q0,3.57,3.15,3.64l0.28,0q4.025,0,6.23-2.905q0.84-1.155,0.84-1.96t-0.35-1.015q-0.035-0.035-0.035-0.14t0.21-0.105q0.91,0,0.91,1.19q0,0.735-0.7175,1.995t-2.5375,2.38t-4.235,1.12t-3.85-1.505t-1.435-3.955q0-5.53,7.21-11.305q1.855-1.47,4.8825-2.415t5.7925-0.945t3.7625,0.9625t0.9975,2.5725q0,2.45-1.995,6.615q-0.63,1.295-2.835,4.725l2.695-3.43q1.96-2.555,6.79-7.28q1.05-1.015,2.3275-1.6975t2.1875-0.6825q1.26,0,1.26,1.33q0,1.155-1.1025,3.4825t-2.2225,4.41t-1.365,2.73t-0.35,1.0325t-0.14,0.42q0.105-0.175,2.31-2.6775t6.51-6.2475l5.6-4.62q0.665-0.56,1.19-0.56t0.8575,0.875t0.3325,1.4175t-1.68,2.2575q-4.375,4.48-7.42,9.8t-3.045,7.595q0,0.595,0.21,0.8225t0.665,0.14t1.9075-0.7175t1.9075-0.735q0.175,0.07,0.175,0.175q0,0.525-1.8375,1.47t-2.765,0.945t-1.1375-0.315q-0.63-0.91-0.63-2.205q0-3.01,3.22-8.645q2.065-3.535,6.37-9.52q-3.36,2.73-9.1,8.365t-7.525,8.82q-0.91,1.645-2.205,1.645q-0.595,0-0.595-0.42q0-0.14,0.7175-1.26t3.1675-5.25q6.02-10.465,6.02-12.6q0-0.56-0.385-0.56q-0.56,0-1.645,0.945q-3.885,3.255-8.26,8.505t-6.58,8.715z M306.07855,35.99l3.395-0.07q1.26,0,1.26,0.175q0,0.455-5.11,0.805q-3.255,6.37-3.255,8.68q0,1.61,1.015,1.61q0.385,0,0.9625-0.4725t0.7-0.4725t0.1225,0.175q-0.175,0.63-1.0675,1.05t-1.505,0.42t-0.9625-0.07q-0.84-0.315-0.84-2.03q0-3.535,2.695-8.995l-4.2,0.105q-4.69,4.585-9.415,8.05q-7.07,5.145-11.06,5.145q-0.245,0-0.49-0.035q-5.39-0.455-5.39-5.53q0-3.01,1.89-6.37q2.52-4.48,6.895-7.6475t7.84-3.1675t3.465,2.555q0,1.715-1.05,3.815t-2.135,2.66q-0.105,0.035-0.2275,0.035t-0.1225-0.07l1.155-1.89q1.19-1.855,1.19-3.255t-0.6125-2.2575t-1.9425-0.8575q-2.73,0-6.5275,3.045t-5.775,7.49t-1.9775,6.93q0,3.745,3.815,3.745q3.64,0,9.87-4.69q2.765-2.065,8.995-7.805q-1.225,0.07-2.275,0.245q-2.24,0.42-2.1-0.14q0.14-1.295,1.33-1.295q2.31,0.28,3.885,0.28q3.01-2.765,8.995-9.065q4.025-4.235,4.9-4.235q0.385,0,0.385,0.595t-0.315,1.855t-0.7,1.54q-0.805,0.56-1.505,1.5225t-1.995,3.605t-2.205,4.2875z M308.87855,27.45l-8.96,8.4l2.065,0q0.735,0.035,1.82,0.035q1.015-1.995,5.075-8.435z M330.2345,36.55q-1.75,0-3.255-0.28q0.49,1.54,2.065,6.965q0.49,1.575,1.54,3.185q1.435,2.065,2.66,2.065q1.47,0,2.45-2.975q0.175-0.7,0.3675-0.7t0.28,0.4025t0.0875,0.5425q0,0.875-0.98,2.24q-1.295,1.925-2.835,1.925t-2.835-1.54t-2.5375-5.6175t-1.2425-5.1975q0-0.175,0.035-0.28q-4.2,5.565-6.02,7.35q-4.06,3.955-8.295,3.955q-2.975,0-2.975-2.24q0-1.12,0.7-2.4675t1.715-2.3625t1.785-1.015q0.14,0,0.14,0.07q0,0.175-0.875,0.875t-1.68,1.9775t-0.805,2.3275q0,1.855,2.485,1.855q4.655,0,12.81-10.92q0.455-0.595,0.77-0.84l-0.56-0.21q-0.455,0.175-0.735,0.175q-0.735,0-0.735-0.595q0-0.805,1.085-1.05q0.14-0.035,0.245-0.035q0.63,0,1.47,0.63q3.08-3.43,3.15-3.5q2.555-2.625,3.4475-2.625t0.8925,0.77q0,0.35-0.1575,0.665t-0.3675,0.315q-0.21,0.07-0.21-0.21q0-0.14,0.21-0.42q0.035-0.49-0.315-0.49q-1.12,0-5.425,5.95q1.05,0.07,1.75,0.07q8.12,0,10.15-4.2q0.42-0.91,0.42-1.68q0-1.54-1.4-2.66q-2.24-1.82-7.28-1.82t-10.29,2.555q-6.37,3.115-6.37,7.315q0,1.365,1.715,1.365t3.64-1.26t2.59-2.485q0.245-0.455,0.4725-0.455t0.1225,0.28q-0.665,1.96-2.9575,3.3425t-4.7775,1.3825t-2.485-1.575l0-0.245q0.525-4.585,5.6175-7.7875t12.2675-3.2025q6.685,0,9.485,2.31q1.68,1.4,1.68,3.29q0,0.805-0.385,1.75q-1.085,2.555-4.445,3.7975t-7.07,1.2425z"/><path fill="#" d=""/></svg>
